<svg xmlns="http://www.w3.org/2000/svg" width="1500" height="900" viewBox="0 0 1500 900">
<defs>
<marker id="arrow" viewBox="0 0 10 10" refX="9" refY="5" markerWidth="7" markerHeight="7" orient="auto-start-reverse">
<path d="M 0 0 L 10 5 L 0 10 z" fill="#1f2937"/>
</marker>
</defs>
<rect x="0" y="0" width="100%" height="100%" fill="#f8fafc"/>
<style>
text{font-family:Segoe UI,Arial,sans-serif;fill:#0f172a;font-size:13px}
.title{font-size:20px;font-weight:700}
.box{fill:#ffffff;stroke:#334155;stroke-width:1.4;rx:8;ry:8}
.soft{fill:#eef2ff;stroke:#475569;stroke-width:1.2;rx:8;ry:8}
.actor{fill:#ecfeff;stroke:#155e75;stroke-width:1.2;rx:18;ry:18}
.line{stroke:#1f2937;stroke-width:1.4;fill:none;marker-end:url(#arrow)}
.dash{stroke:#334155;stroke-width:1.2;fill:none;stroke-dasharray:6 5;marker-end:url(#arrow)}
.small{font-size:12px;fill:#334155}
</style>
<text x="30" y="40" class="title">Fake News Detector - UML Use Case Diagram</text>
<rect class="soft" x="260" y="90" width="1180" height="740"/>
<text x="290" y="120" class="small">System Boundary: Fake News Detector</text>
<rect class="actor" x="40" y="230" width="150" height="80"/>
<text x="88" y="276">User</text>
<rect class="actor" x="40" y="520" width="180" height="80"/>
<text x="72" y="566">Developer/Admin</text>
<ellipse cx="420" cy="180" rx="170" ry="42" fill="#fff" stroke="#334155" stroke-width="1.4"/>
<text x="325" y="184">Analyze URL</text>
<ellipse cx="420" cy="280" rx="170" ry="42" fill="#fff" stroke="#334155" stroke-width="1.4"/>
<text x="325" y="284">Analyze Article Text</text>
<ellipse cx="420" cy="380" rx="170" ry="42" fill="#fff" stroke="#334155" stroke-width="1.4"/>
<text x="325" y="384">Analyze Headline</text>
<ellipse cx="860" cy="180" rx="170" ry="42" fill="#fff" stroke="#334155" stroke-width="1.4"/>
<text x="765" y="184">View Latest Result</text>
<ellipse cx="860" cy="280" rx="170" ry="42" fill="#fff" stroke="#334155" stroke-width="1.4"/>
<text x="765" y="284">View History</text>
<ellipse cx="860" cy="380" rx="170" ry="42" fill="#fff" stroke="#334155" stroke-width="1.4"/>
<text x="765" y="384">Open Analysis by ID</text>
<ellipse cx="860" cy="540" rx="170" ry="42" fill="#fff" stroke="#334155" stroke-width="1.4"/>
<text x="765" y="544">Check Health Endpoint</text>
<ellipse cx="420" cy="540" rx="170" ry="42" fill="#fff" stroke="#334155" stroke-width="1.4"/>
<text x="325" y="544">Train NLP Model</text>
<ellipse cx="420" cy="640" rx="170" ry="42" fill="#fff" stroke="#334155" stroke-width="1.4"/>
<text x="325" y="644">Evaluate Model</text>
<line class="line" x1="190" y1="270" x2="250" y2="180"/>
<line class="line" x1="190" y1="270" x2="250" y2="280"/>
<line class="line" x1="190" y1="270" x2="250" y2="380"/>
<line class="line" x1="190" y1="270" x2="690" y2="180"/>
<line class="line" x1="190" y1="270" x2="690" y2="280"/>
<line class="line" x1="190" y1="270" x2="690" y2="380"/>
<line class="line" x1="220" y1="560" x2="250" y2="540"/>
<line class="line" x1="220" y1="560" x2="250" y2="640"/>
<line class="line" x1="220" y1="560" x2="690" y2="540"/>
</svg>
